<?xml version="1.0" standalone="no"?><svg version="1.1" xmlns="http://www.w3.org/2000/svg" width="488.5538736979167" height="436.8333333333333"><svg x="461.5538736979167" y="190.83333333333331" width="27" height="213"><path d="M4,187L14,187Q24,187,24,177L24,32Q24,22,14,22L4,22L14,22Q24,22,24,32L24,177Q24,187,14,187L4,187L4,187ZM14,183L14,191M4,18L14,22L4,26" fill="none" stroke="#D3D3D3" stroke-width="1"></path><text x="7" y="184" style="font-family: &quot;Open Sans&quot;, sans-serif; font-size: 14px; font-weight: normal; fill: transparent;">1</text><text x="7" y="19" style="font-family: &quot;Open Sans&quot;, sans-serif; font-size: 14px; font-weight: normal; fill: transparent;">*</text></svg><svg x="221.5302734375" y="27.5" width="67.44645182291669" height="409.3333333333333"><path d="M4,22L19.223225911458343,22Q29.223225911458343,22,29.223225911458343,32L29.223225911458343,373.3333333333333Q29.223225911458343,383.3333333333333,39.22322591145834,383.3333333333333L54.446451822916686,383.3333333333333L39.22322591145834,383.3333333333333Q29.223225911458343,383.3333333333333,29.223225911458343,373.3333333333333L29.223225911458343,32Q29.223225911458343,22,19.223225911458343,22L4,22L4,22M4,18L14,22L4,26M44.446451822916686,379.3333333333333L44.446451822916686,387.3333333333333" fill="none" stroke="#D3D3D3" stroke-width="1"></path><text x="7" y="19" style="font-family: &quot;Open Sans&quot;, sans-serif; font-size: 14px; font-weight: normal; fill: transparent;">*</text><text x="43.441569010416686" y="380.3333333333333" style="font-family: &quot;Open Sans&quot;, sans-serif; font-size: 14px; font-weight: normal; fill: transparent;">1</text></svg><svg x="221.5302734375" y="27.5" width="67" height="48"><path d="M4,22L29,22Q29,22,29,22L29,22Q29,22,29,22L54,22L29,22Q29,22,29,22L29,22Q29,22,29,22L4,22L4,22M4,18L14,22L4,26M44,18L44,26" fill="none" stroke="#D3D3D3" stroke-width="1"></path><text x="7" y="19" style="font-family: &quot;Open Sans&quot;, sans-serif; font-size: 14px; font-weight: normal; fill: transparent;">*</text><text x="42.9951171875" y="19" style="font-family: &quot;Open Sans&quot;, sans-serif; font-size: 14px; font-weight: normal; fill: transparent;">1</text></svg><svg x="221.5302734375" y="27.5" width="67" height="81"><path d="M4,22L19,22Q29,22,29,32L29,45Q29,55,39,55L54,55L39,55Q29,55,29,45L29,32Q29,22,19,22L4,22L4,22M4,18L14,22L4,26M44,51L44,59" fill="none" stroke="#D3D3D3" stroke-width="1"></path><text x="7" y="19" style="font-family: &quot;Open Sans&quot;, sans-serif; font-size: 14px; font-weight: normal; fill: transparent;">*</text><text x="42.9951171875" y="52" style="font-family: &quot;Open Sans&quot;, sans-serif; font-size: 14px; font-weight: normal; fill: transparent;">1</text></svg><svg x="0" y="0"><rect x="0" y="0" width="225.5302734375" height="33" fill="#316896"></rect><text x="10" y="19.75" style="font-family: &quot;Open Sans&quot;, sans-serif; font-size: 13px; font-weight: bold; fill: rgb(255, 255, 255);">VanBan</text></svg><svg x="0" y="33"><rect x="0" y="0" width="225.5302734375" height="33" fill="#F2F2F2"></rect><text x="10" y="19.75" style="font-family: &quot;Open Sans&quot;, sans-serif; font-size: 13px; font-weight: bold; fill: black;">id</text><text x="168.76708984375" y="19.75" style="font-family: &quot;Open Sans&quot;, sans-serif; font-size: 13px; font-weight: bold; fill: black;">integer</text></svg><svg x="0" y="66"><rect x="0" y="0" width="225.5302734375" height="33" fill="#F2F2F2"></rect><text x="10" y="19.75" style="font-family: &quot;Open Sans&quot;, sans-serif; font-size: 13px; fill: rgb(111, 111, 111);">ten_van_ban</text><text x="181.0751953125" y="19.75" style="font-family: &quot;Open Sans&quot;, sans-serif; font-size: 13px; fill: rgb(111, 111, 111);">string</text></svg><svg x="0" y="99"><rect x="0" y="0" width="225.5302734375" height="33" fill="#F2F2F2"></rect><text x="10" y="19.75" style="font-family: &quot;Open Sans&quot;, sans-serif; font-size: 13px; fill: rgb(111, 111, 111);">so_hieu_van_ban</text><text x="181.0751953125" y="19.75" style="font-family: &quot;Open Sans&quot;, sans-serif; font-size: 13px; fill: rgb(111, 111, 111);">string</text></svg><svg x="0" y="132"><rect x="0" y="0" width="225.5302734375" height="33" fill="#F2F2F2"></rect><text x="10" y="19.75" style="font-family: &quot;Open Sans&quot;, sans-serif; font-size: 13px; fill: rgb(111, 111, 111);">loai_van_ban</text><text x="181.0751953125" y="19.75" style="font-family: &quot;Open Sans&quot;, sans-serif; font-size: 13px; fill: rgb(111, 111, 111);">string</text></svg><svg x="0" y="165"><rect x="0" y="0" width="225.5302734375" height="33" fill="#F2F2F2"></rect><text x="10" y="19.75" style="font-family: &quot;Open Sans&quot;, sans-serif; font-size: 13px; fill: rgb(111, 111, 111);">noi_ban_hanh</text><text x="181.0751953125" y="19.75" style="font-family: &quot;Open Sans&quot;, sans-serif; font-size: 13px; fill: rgb(111, 111, 111);">string</text></svg><svg x="0" y="198"><rect x="0" y="0" width="225.5302734375" height="33" fill="#F2F2F2"></rect><text x="10" y="19.75" style="font-family: &quot;Open Sans&quot;, sans-serif; font-size: 13px; fill: rgb(111, 111, 111);">nguoi_ky</text><text x="181.0751953125" y="19.75" style="font-family: &quot;Open Sans&quot;, sans-serif; font-size: 13px; fill: rgb(111, 111, 111);">string</text></svg><svg x="0" y="231"><rect x="0" y="0" width="225.5302734375" height="33" fill="#F2F2F2"></rect><text x="10" y="19.75" style="font-family: &quot;Open Sans&quot;, sans-serif; font-size: 13px; fill: rgb(111, 111, 111);">ngay_ban_hanh</text><text x="188.41943359375" y="19.75" style="font-family: &quot;Open Sans&quot;, sans-serif; font-size: 13px; fill: rgb(111, 111, 111);">date</text></svg><svg x="0" y="264"><rect x="0" y="0" width="225.5302734375" height="33" fill="#F2F2F2"></rect><text x="10" y="19.75" style="font-family: &quot;Open Sans&quot;, sans-serif; font-size: 13px; fill: rgb(111, 111, 111);">ngay_hieu_luc</text><text x="188.41943359375" y="19.75" style="font-family: &quot;Open Sans&quot;, sans-serif; font-size: 13px; fill: rgb(111, 111, 111);">date</text></svg><svg x="0" y="297"><rect x="0" y="0" width="225.5302734375" height="33" fill="#F2F2F2"></rect><text x="10" y="19.75" style="font-family: &quot;Open Sans&quot;, sans-serif; font-size: 13px; fill: rgb(111, 111, 111);">ngay_cong_bao</text><text x="188.41943359375" y="19.75" style="font-family: &quot;Open Sans&quot;, sans-serif; font-size: 13px; fill: rgb(111, 111, 111);">date</text></svg><svg x="0" y="330"><rect x="0" y="0" width="225.5302734375" height="33" fill="#F2F2F2"></rect><text x="10" y="19.75" style="font-family: &quot;Open Sans&quot;, sans-serif; font-size: 13px; fill: rgb(111, 111, 111);">so_cong_bao</text><text x="181.0751953125" y="19.75" style="font-family: &quot;Open Sans&quot;, sans-serif; font-size: 13px; fill: rgb(111, 111, 111);">string</text></svg><svg x="0" y="363"><rect x="0" y="0" width="225.5302734375" height="33" fill="#F2F2F2"></rect><text x="10" y="19.75" style="font-family: &quot;Open Sans&quot;, sans-serif; font-size: 13px; fill: rgb(111, 111, 111);">noi_dung_van_ban</text><text x="181.0751953125" y="19.75" style="font-family: &quot;Open Sans&quot;, sans-serif; font-size: 13px; fill: rgb(111, 111, 111);">string</text></svg><svg x="0" y="396"><rect x="0" y="0" width="225.5302734375" height="33" fill="#F2F2F2"></rect><text x="10" y="19.75" style="font-family: &quot;Open Sans&quot;, sans-serif; font-size: 13px; fill: rgb(111, 111, 111);">linh_vuc</text><text x="181.0751953125" y="19.75" style="font-family: &quot;Open Sans&quot;, sans-serif; font-size: 13px; fill: rgb(111, 111, 111);">string</text></svg><svg x="275.5302734375" y="0"><rect x="0" y="0" width="191.77978515625" height="33" fill="#316896"></rect><text x="10" y="19.75" style="font-family: &quot;Open Sans&quot;, sans-serif; font-size: 13px; font-weight: bold; fill: rgb(255, 255, 255);">LuocDo</text></svg><svg x="275.5302734375" y="33"><rect x="0" y="0" width="191.77978515625" height="33" fill="#F2F2F2"></rect><text x="10" y="19.75" style="font-family: &quot;Open Sans&quot;, sans-serif; font-size: 13px; fill: rgb(111, 111, 111);">source</text><text x="138.92041015625" y="19.75" style="font-family: &quot;Open Sans&quot;, sans-serif; font-size: 13px; fill: rgb(111, 111, 111);">integer</text></svg><svg x="275.5302734375" y="66"><rect x="0" y="0" width="191.77978515625" height="33" fill="#F2F2F2"></rect><text x="10" y="19.75" style="font-family: &quot;Open Sans&quot;, sans-serif; font-size: 13px; fill: rgb(111, 111, 111);">target</text><text x="138.92041015625" y="19.75" style="font-family: &quot;Open Sans&quot;, sans-serif; font-size: 13px; fill: rgb(111, 111, 111);">integer</text></svg><svg x="275.5302734375" y="99"><rect x="0" y="0" width="191.77978515625" height="33" fill="#F2F2F2"></rect><text x="10" y="19.75" style="font-family: &quot;Open Sans&quot;, sans-serif; font-size: 13px; fill: rgb(111, 111, 111);">loai_quan_he</text><text x="147.32470703125" y="19.75" style="font-family: &quot;Open Sans&quot;, sans-serif; font-size: 13px; fill: rgb(111, 111, 111);">string</text></svg><svg x="275.9767252604167" y="163.33333333333331"><rect x="0" y="0" width="189.5771484375" height="33" fill="#316896"></rect><text x="10" y="19.75" style="font-family: &quot;Open Sans&quot;, sans-serif; font-size: 13px; font-weight: bold; fill: rgb(255, 255, 255);">ChiMuc</text></svg><svg x="275.9767252604167" y="196.33333333333331"><rect x="0" y="0" width="189.5771484375" height="33" fill="#F2F2F2"></rect><text x="10" y="19.75" style="font-family: &quot;Open Sans&quot;, sans-serif; font-size: 13px; font-weight: bold; fill: black;">id</text><text x="132.81396484375" y="19.75" style="font-family: &quot;Open Sans&quot;, sans-serif; font-size: 13px; font-weight: bold; fill: black;">integer</text></svg><svg x="275.9767252604167" y="229.33333333333331"><rect x="0" y="0" width="189.5771484375" height="33" fill="#F2F2F2"></rect><text x="10" y="19.75" style="font-family: &quot;Open Sans&quot;, sans-serif; font-size: 13px; fill: rgb(111, 111, 111);">ten_chi_muc</text><text x="145.1220703125" y="19.75" style="font-family: &quot;Open Sans&quot;, sans-serif; font-size: 13px; fill: rgb(111, 111, 111);">string</text></svg><svg x="275.9767252604167" y="262.3333333333333"><rect x="0" y="0" width="189.5771484375" height="33" fill="#F2F2F2"></rect><text x="10" y="19.75" style="font-family: &quot;Open Sans&quot;, sans-serif; font-size: 13px; fill: rgb(111, 111, 111);">loai_chi_muc</text><text x="145.1220703125" y="19.75" style="font-family: &quot;Open Sans&quot;, sans-serif; font-size: 13px; fill: rgb(111, 111, 111);">string</text></svg><svg x="275.9767252604167" y="295.3333333333333"><rect x="0" y="0" width="189.5771484375" height="33" fill="#F2F2F2"></rect><text x="10" y="19.75" style="font-family: &quot;Open Sans&quot;, sans-serif; font-size: 13px; fill: rgb(111, 111, 111);">start_index</text><text x="136.7177734375" y="19.75" style="font-family: &quot;Open Sans&quot;, sans-serif; font-size: 13px; fill: rgb(111, 111, 111);">integer</text></svg><svg x="275.9767252604167" y="328.3333333333333"><rect x="0" y="0" width="189.5771484375" height="33" fill="#F2F2F2"></rect><text x="10" y="19.75" style="font-family: &quot;Open Sans&quot;, sans-serif; font-size: 13px; fill: rgb(111, 111, 111);">end_index</text><text x="136.7177734375" y="19.75" style="font-family: &quot;Open Sans&quot;, sans-serif; font-size: 13px; fill: rgb(111, 111, 111);">integer</text></svg><svg x="275.9767252604167" y="361.3333333333333"><rect x="0" y="0" width="189.5771484375" height="33" fill="#F2F2F2"></rect><text x="10" y="19.75" style="font-family: &quot;Open Sans&quot;, sans-serif; font-size: 13px; fill: rgb(111, 111, 111);">parent</text><text x="136.7177734375" y="19.75" style="font-family: &quot;Open Sans&quot;, sans-serif; font-size: 13px; fill: rgb(111, 111, 111);">integer</text></svg><svg x="275.9767252604167" y="394.3333333333333"><rect x="0" y="0" width="189.5771484375" height="33" fill="#F2F2F2"></rect><text x="10" y="19.75" style="font-family: &quot;Open Sans&quot;, sans-serif; font-size: 13px; fill: rgb(111, 111, 111);">van_ban</text><text x="136.7177734375" y="19.75" style="font-family: &quot;Open Sans&quot;, sans-serif; font-size: 13px; fill: rgb(111, 111, 111);">integer</text></svg></svg>