<?xml version="1.0" standalone="no"?><svg version="1.1" xmlns="http://www.w3.org/2000/svg" width="494.54556979101903" height="397.42136266026023"><svg x="467.54556979101903" y="27.5" width="27" height="213"><path d="M4,187L14,187Q24,187,24,177L24,32Q24,22,14,22L4,22L14,22Q24,22,24,32L24,177Q24,187,14,187L4,187L4,187ZM14,183L14,191M4,18L14,22L4,26" fill="none" stroke="#D3D3D3" stroke-width="1"></path><text x="7" y="184" style="font-family: &quot;Open Sans&quot;, sans-serif; font-size: 14px; font-weight: normal; fill: transparent;">1</text><text x="7" y="19" style="font-family: &quot;Open Sans&quot;, sans-serif; font-size: 14px; font-weight: normal; fill: transparent;">*</text></svg><svg x="221.5302734375" y="28.92136266026023" width="68.56949557226903" height="244.57863733973977"><path d="M4,22L19.784747786134517,22Q29.784747786134517,22,29.784747786134517,32L29.784747786134517,208.57863733973977Q29.784747786134517,218.57863733973977,39.78474778613452,218.57863733973977L55.569495572269034,218.57863733973977L39.78474778613452,218.57863733973977Q29.784747786134517,218.57863733973977,29.784747786134517,208.57863733973977L29.784747786134517,32Q29.784747786134517,22,19.784747786134517,22L4,22L4,22M4,18L14,22L4,26M45.569495572269034,214.57863733973977L45.569495572269034,222.57863733973977" fill="none" stroke="#D3D3D3" stroke-width="1"></path><text x="7" y="19" style="font-family: &quot;Open Sans&quot;, sans-serif; font-size: 14px; font-weight: normal; fill: transparent;">*</text><text x="44.564612759769034" y="215.57863733973977" style="font-family: &quot;Open Sans&quot;, sans-serif; font-size: 14px; font-weight: normal; fill: transparent;">1</text></svg><svg x="221.5302734375" y="28.92136266026023" width="69.84272532052046" height="310.95209214814474"><path d="M4,22L20.42136266026023,22Q30.42136266026023,22,30.42136266026023,32L30.42136266026023,274.95209214814474Q30.42136266026023,284.95209214814474,40.42136266026023,284.95209214814474L56.84272532052046,284.95209214814474L40.42136266026023,284.95209214814474Q30.42136266026023,284.95209214814474,30.42136266026023,274.95209214814474L30.42136266026023,32Q30.42136266026023,22,20.42136266026023,22L4,22L4,22M4,18L14,22L4,26M46.84272532052046,280.95209214814474L46.84272532052046,288.95209214814474" fill="none" stroke="#D3D3D3" stroke-width="1"></path><text x="7" y="19" style="font-family: &quot;Open Sans&quot;, sans-serif; font-size: 14px; font-weight: normal; fill: transparent;">*</text><text x="45.83784250802046" y="281.95209214814474" style="font-family: &quot;Open Sans&quot;, sans-serif; font-size: 14px; font-weight: normal; fill: transparent;">1</text></svg><svg x="221.5302734375" y="28.92136266026023" width="69.84272532052046" height="343.95209214814474"><path d="M4,22L20.42136266026023,22Q30.42136266026023,22,30.42136266026023,32L30.42136266026023,307.95209214814474Q30.42136266026023,317.95209214814474,40.42136266026023,317.95209214814474L56.84272532052046,317.95209214814474L40.42136266026023,317.95209214814474Q30.42136266026023,317.95209214814474,30.42136266026023,307.95209214814474L30.42136266026023,32Q30.42136266026023,22,20.42136266026023,22L4,22L4,22M4,18L14,22L4,26M46.84272532052046,313.95209214814474L46.84272532052046,321.95209214814474" fill="none" stroke="#D3D3D3" stroke-width="1"></path><text x="7" y="19" style="font-family: &quot;Open Sans&quot;, sans-serif; font-size: 14px; font-weight: normal; fill: transparent;">*</text><text x="45.83784250802046" y="314.95209214814474" style="font-family: &quot;Open Sans&quot;, sans-serif; font-size: 14px; font-weight: normal; fill: transparent;">1</text></svg><svg x="0" y="1.421362660260229"><rect x="0" y="0" width="225.5302734375" height="33" fill="#316896"></rect><text x="10" y="19.75" style="font-family: &quot;Open Sans&quot;, sans-serif; font-size: 13px; font-weight: bold; fill: rgb(255, 255, 255);">LawDocument</text></svg><svg x="0" y="34.42136266026023"><rect x="0" y="0" width="225.5302734375" height="33" fill="#F2F2F2"></rect><text x="10" y="19.75" style="font-family: &quot;Open Sans&quot;, sans-serif; font-size: 13px; font-weight: bold; fill: black;">id</text><text x="168.76708984375" y="19.75" style="font-family: &quot;Open Sans&quot;, sans-serif; font-size: 13px; font-weight: bold; fill: black;">integer</text></svg><svg x="0" y="67.42136266026023"><rect x="0" y="0" width="225.5302734375" height="33" fill="#F2F2F2"></rect><text x="10" y="19.75" style="font-family: &quot;Open Sans&quot;, sans-serif; font-size: 13px; fill: rgb(111, 111, 111);">ten_van_ban</text><text x="181.0751953125" y="19.75" style="font-family: &quot;Open Sans&quot;, sans-serif; font-size: 13px; fill: rgb(111, 111, 111);">string</text></svg><svg x="0" y="100.42136266026023"><rect x="0" y="0" width="225.5302734375" height="33" fill="#F2F2F2"></rect><text x="10" y="19.75" style="font-family: &quot;Open Sans&quot;, sans-serif; font-size: 13px; fill: rgb(111, 111, 111);">so_hieu_van_ban</text><text x="181.0751953125" y="19.75" style="font-family: &quot;Open Sans&quot;, sans-serif; font-size: 13px; fill: rgb(111, 111, 111);">string</text></svg><svg x="0" y="133.42136266026023"><rect x="0" y="0" width="225.5302734375" height="33" fill="#F2F2F2"></rect><text x="10" y="19.75" style="font-family: &quot;Open Sans&quot;, sans-serif; font-size: 13px; fill: rgb(111, 111, 111);">loai_van_ban</text><text x="181.0751953125" y="19.75" style="font-family: &quot;Open Sans&quot;, sans-serif; font-size: 13px; fill: rgb(111, 111, 111);">string</text></svg><svg x="0" y="166.42136266026023"><rect x="0" y="0" width="225.5302734375" height="33" fill="#F2F2F2"></rect><text x="10" y="19.75" style="font-family: &quot;Open Sans&quot;, sans-serif; font-size: 13px; fill: rgb(111, 111, 111);">noi_ban_hanh</text><text x="181.0751953125" y="19.75" style="font-family: &quot;Open Sans&quot;, sans-serif; font-size: 13px; fill: rgb(111, 111, 111);">string</text></svg><svg x="0" y="199.42136266026023"><rect x="0" y="0" width="225.5302734375" height="33" fill="#F2F2F2"></rect><text x="10" y="19.75" style="font-family: &quot;Open Sans&quot;, sans-serif; font-size: 13px; fill: rgb(111, 111, 111);">nguoi_ky</text><text x="181.0751953125" y="19.75" style="font-family: &quot;Open Sans&quot;, sans-serif; font-size: 13px; fill: rgb(111, 111, 111);">string</text></svg><svg x="0" y="232.42136266026023"><rect x="0" y="0" width="225.5302734375" height="33" fill="#F2F2F2"></rect><text x="10" y="19.75" style="font-family: &quot;Open Sans&quot;, sans-serif; font-size: 13px; fill: rgb(111, 111, 111);">ngay_ban_hanh</text><text x="188.41943359375" y="19.75" style="font-family: &quot;Open Sans&quot;, sans-serif; font-size: 13px; fill: rgb(111, 111, 111);">date</text></svg><svg x="0" y="265.42136266026023"><rect x="0" y="0" width="225.5302734375" height="33" fill="#F2F2F2"></rect><text x="10" y="19.75" style="font-family: &quot;Open Sans&quot;, sans-serif; font-size: 13px; fill: rgb(111, 111, 111);">ngay_hieu_luc</text><text x="188.41943359375" y="19.75" style="font-family: &quot;Open Sans&quot;, sans-serif; font-size: 13px; fill: rgb(111, 111, 111);">date</text></svg><svg x="0" y="298.42136266026023"><rect x="0" y="0" width="225.5302734375" height="33" fill="#F2F2F2"></rect><text x="10" y="19.75" style="font-family: &quot;Open Sans&quot;, sans-serif; font-size: 13px; fill: rgb(111, 111, 111);">ngay_cong_bao</text><text x="188.41943359375" y="19.75" style="font-family: &quot;Open Sans&quot;, sans-serif; font-size: 13px; fill: rgb(111, 111, 111);">date</text></svg><svg x="0" y="331.42136266026023"><rect x="0" y="0" width="225.5302734375" height="33" fill="#F2F2F2"></rect><text x="10" y="19.75" style="font-family: &quot;Open Sans&quot;, sans-serif; font-size: 13px; fill: rgb(111, 111, 111);">so_cong_bao</text><text x="181.0751953125" y="19.75" style="font-family: &quot;Open Sans&quot;, sans-serif; font-size: 13px; fill: rgb(111, 111, 111);">string</text></svg><svg x="0" y="364.42136266026023"><rect x="0" y="0" width="225.5302734375" height="33" fill="#F2F2F2"></rect><text x="10" y="19.75" style="font-family: &quot;Open Sans&quot;, sans-serif; font-size: 13px; fill: rgb(111, 111, 111);">noi_dung_van_ban</text><text x="181.0751953125" y="19.75" style="font-family: &quot;Open Sans&quot;, sans-serif; font-size: 13px; fill: rgb(111, 111, 111);">string</text></svg><svg x="278.37299875802046" y="264.373454808405"><rect x="0" y="0" width="191.77978515625" height="33" fill="#316896"></rect><text x="10" y="19.75" style="font-family: &quot;Open Sans&quot;, sans-serif; font-size: 13px; font-weight: bold; fill: rgb(255, 255, 255);">LuocDo</text></svg><svg x="278.37299875802046" y="297.373454808405"><rect x="0" y="0" width="191.77978515625" height="33" fill="#F2F2F2"></rect><text x="10" y="19.75" style="font-family: &quot;Open Sans&quot;, sans-serif; font-size: 13px; fill: rgb(111, 111, 111);">vanban1</text><text x="133.607421875" y="19.75" style="font-family: &quot;Open Sans&quot;, sans-serif; font-size: 13px; fill: rgb(111, 111, 111);">interger</text></svg><svg x="278.37299875802046" y="330.373454808405"><rect x="0" y="0" width="191.77978515625" height="33" fill="#F2F2F2"></rect><text x="10" y="19.75" style="font-family: &quot;Open Sans&quot;, sans-serif; font-size: 13px; fill: rgb(111, 111, 111);">vanban2</text><text x="133.607421875" y="19.75" style="font-family: &quot;Open Sans&quot;, sans-serif; font-size: 13px; fill: rgb(111, 111, 111);">interger</text></svg><svg x="278.37299875802046" y="363.373454808405"><rect x="0" y="0" width="191.77978515625" height="33" fill="#F2F2F2"></rect><text x="10" y="19.75" style="font-family: &quot;Open Sans&quot;, sans-serif; font-size: 13px; fill: rgb(111, 111, 111);">loai_quan_he</text><text x="147.32470703125" y="19.75" style="font-family: &quot;Open Sans&quot;, sans-serif; font-size: 13px; fill: rgb(111, 111, 111);">string</text></svg><svg x="277.09976900976903" y="0"><rect x="0" y="0" width="194.44580078125" height="33" fill="#316896"></rect><text x="10" y="19.75" style="font-family: &quot;Open Sans&quot;, sans-serif; font-size: 13px; font-weight: bold; fill: rgb(255, 255, 255);">ChiMuc</text></svg><svg x="277.09976900976903" y="33"><rect x="0" y="0" width="194.44580078125" height="33" fill="#F2F2F2"></rect><text x="10" y="19.75" style="font-family: &quot;Open Sans&quot;, sans-serif; font-size: 13px; font-weight: bold; fill: black;">id</text><text x="131.779296875" y="19.75" style="font-family: &quot;Open Sans&quot;, sans-serif; font-size: 13px; font-weight: bold; fill: black;">interger</text></svg><svg x="277.09976900976903" y="66"><rect x="0" y="0" width="194.44580078125" height="33" fill="#F2F2F2"></rect><text x="10" y="19.75" style="font-family: &quot;Open Sans&quot;, sans-serif; font-size: 13px; fill: rgb(111, 111, 111);">ten_chi_muc</text><text x="149.99072265625" y="19.75" style="font-family: &quot;Open Sans&quot;, sans-serif; font-size: 13px; fill: rgb(111, 111, 111);">string</text></svg><svg x="277.09976900976903" y="99"><rect x="0" y="0" width="194.44580078125" height="33" fill="#F2F2F2"></rect><text x="10" y="19.75" style="font-family: &quot;Open Sans&quot;, sans-serif; font-size: 13px; fill: rgb(111, 111, 111);">loai_chi_muc</text><text x="149.99072265625" y="19.75" style="font-family: &quot;Open Sans&quot;, sans-serif; font-size: 13px; fill: rgb(111, 111, 111);">string</text></svg><svg x="277.09976900976903" y="132"><rect x="0" y="0" width="194.44580078125" height="33" fill="#F2F2F2"></rect><text x="10" y="19.75" style="font-family: &quot;Open Sans&quot;, sans-serif; font-size: 13px; fill: rgb(111, 111, 111);">start_index</text><text x="135.89892578125" y="19.75" style="font-family: &quot;Open Sans&quot;, sans-serif; font-size: 13px; fill: rgb(111, 111, 111);">number</text></svg><svg x="277.09976900976903" y="165"><rect x="0" y="0" width="194.44580078125" height="33" fill="#F2F2F2"></rect><text x="10" y="19.75" style="font-family: &quot;Open Sans&quot;, sans-serif; font-size: 13px; fill: rgb(111, 111, 111);">end_index</text><text x="135.89892578125" y="19.75" style="font-family: &quot;Open Sans&quot;, sans-serif; font-size: 13px; fill: rgb(111, 111, 111);">number</text></svg><svg x="277.09976900976903" y="198"><rect x="0" y="0" width="194.44580078125" height="33" fill="#F2F2F2"></rect><text x="10" y="19.75" style="font-family: &quot;Open Sans&quot;, sans-serif; font-size: 13px; fill: rgb(111, 111, 111);">parent</text><text x="173.21044921875" y="19.75" style="font-family: &quot;Open Sans&quot;, sans-serif; font-size: 13px; fill: rgb(111, 111, 111);">id</text></svg><svg x="277.09976900976903" y="231"><rect x="0" y="0" width="194.44580078125" height="33" fill="#F2F2F2"></rect><text x="10" y="19.75" style="font-family: &quot;Open Sans&quot;, sans-serif; font-size: 13px; fill: rgb(111, 111, 111);">van_ban</text><text x="173.21044921875" y="19.75" style="font-family: &quot;Open Sans&quot;, sans-serif; font-size: 13px; fill: rgb(111, 111, 111);">id</text></svg></svg>